<?xml version="1.0" encoding="UTF-8" standalone="no"?>
<svg
   xmlns:dc="http://purl.org/dc/elements/1.1/"
   xmlns:cc="http://creativecommons.org/ns#"
   xmlns:rdf="http://www.w3.org/1999/02/22-rdf-syntax-ns#"
   xmlns:svg="http://www.w3.org/2000/svg"
   xmlns="http://www.w3.org/2000/svg"
   viewBox="0 0 531.5 531.5"
   height="531.5"
   width="531.5"
   xml:space="preserve"
   version="1.1"
   id="svg2"><metadata
     id="metadata8"><rdf:RDF><cc:Work
         rdf:about=""><dc:format>image/svg+xml</dc:format><dc:type
           rdf:resource="http://purl.org/dc/dcmitype/StillImage" /></cc:Work></rdf:RDF></metadata><defs
     id="defs6"><clipPath
       id="clipPath16"
       clipPathUnits="userSpaceOnUse"><path
         id="path18"
         d="m 0,425.2 425.2,0 L 425.2,0 0,0 0,425.2 Z" /></clipPath></defs><g
     transform="matrix(1.25,0,0,-1.25,0,531.5)"
     id="g10"><g
       id="g12"><g
         clip-path="url(#clipPath16)"
         id="g14"><g
           transform="translate(214.7607,90.7303)"
           id="g20"><path
             id="path22"
             style="fill:#231f20;fill-opacity:1;fill-rule:nonzero;stroke:none"
             d="m 0,0 c -66.114,0 -119.709,53.596 -119.709,119.709 0,66.114 53.595,119.709 119.709,119.709 66.113,0 119.709,-53.595 119.709,-119.709 C 119.709,53.596 66.113,0 0,0 m 162.091,114.048 c 8.372,4.304 8.372,11.344 0,15.667 -8.339,4.303 -9.223,12.698 -1.949,18.645 7.278,5.949 5.812,12.857 -3.257,15.322 -9.074,2.478 -11.676,10.512 -5.795,17.846 5.891,7.341 3.009,13.769 -6.372,14.315 -9.392,0.54 -13.61,7.841 -9.376,16.233 4.207,8.414 0.082,14.117 -9.205,12.684 -9.311,-1.418 -14.944,4.835 -12.559,13.942 2.388,9.087 -2.849,13.816 -11.638,10.491 -8.787,-3.337 -15.641,1.62 -15.19,11.018 0.452,9.394 -5.649,12.924 -13.564,7.828 -7.911,-5.082 -15.619,-1.653 -17.144,7.641 -1.51,9.278 -8.207,11.451 -14.889,4.843 -6.694,-6.627 -14.941,-4.856 -18.353,3.89 -3.409,8.758 -10.413,9.491 -15.571,1.645 -5.167,-7.873 -13.61,-7.873 -18.783,0 -5.137,7.846 -12.162,7.113 -15.57,-1.645 -3.409,-8.746 -11.667,-10.517 -18.344,-3.89 -6.687,6.608 -13.381,4.435 -14.897,-4.843 -1.526,-9.294 -9.237,-12.723 -17.142,-7.641 -7.91,5.096 -14.014,1.566 -13.569,-7.828 0.444,-9.398 -6.376,-14.355 -15.175,-11.018 -8.802,3.325 -14.041,-1.404 -11.652,-10.491 2.407,-9.107 -3.252,-15.36 -12.539,-13.942 -9.306,1.433 -13.443,-4.27 -9.207,-12.684 4.218,-8.392 0.003,-15.693 -9.383,-16.233 -9.391,-0.546 -12.261,-6.974 -6.382,-14.315 5.881,-7.334 3.278,-15.368 -5.782,-17.846 -9.081,-2.465 -10.54,-9.373 -3.264,-15.322 7.283,-5.947 6.401,-14.342 -1.952,-18.645 -8.373,-4.323 -8.373,-11.363 0,-15.667 8.353,-4.323 9.235,-12.71 1.952,-18.658 -7.276,-5.954 -5.817,-12.858 3.264,-15.328 9.06,-2.48 11.663,-10.505 5.782,-17.84 -5.879,-7.346 -3.009,-13.776 6.382,-14.329 9.386,-0.526 13.601,-7.832 9.383,-16.24 -4.236,-8.386 -0.099,-14.102 9.207,-12.664 9.287,1.414 14.946,-4.855 12.539,-13.948 -2.389,-9.092 2.85,-13.808 11.652,-10.484 8.799,3.323 15.619,-1.633 15.175,-11.025 -0.445,-9.387 5.659,-12.91 13.569,-7.834 7.905,5.088 15.616,1.658 17.142,-7.628 1.516,-9.278 8.21,-11.459 14.897,-4.843 6.677,6.628 14.935,4.856 18.344,-3.897 3.408,-8.771 10.433,-9.491 15.57,-1.638 5.173,7.861 13.616,7.861 18.783,0 5.158,-7.853 12.162,-7.133 15.571,1.638 3.412,8.753 11.659,10.525 18.353,3.897 6.682,-6.616 13.379,-4.435 14.889,4.843 1.525,9.286 9.233,12.716 17.144,7.628 7.915,-5.076 14.016,-1.553 13.564,7.834 -0.451,9.392 6.403,14.348 15.19,11.025 8.789,-3.324 14.026,1.392 11.638,10.484 -2.385,9.093 3.248,15.362 12.559,13.948 9.287,-1.438 13.412,4.278 9.205,12.664 -4.234,8.408 -0.016,15.714 9.376,16.24 9.381,0.553 12.263,6.983 6.372,14.329 -5.881,7.335 -3.279,15.36 5.795,17.84 9.069,2.47 10.535,9.374 3.257,15.328 -7.274,5.948 -6.39,14.335 1.949,18.658" /></g><g
           transform="translate(176.5283,300.1844)"
           id="g24"><path
             id="path26"
             style="fill:#231f20;fill-opacity:1;fill-rule:nonzero;stroke:none"
             d="M 0,0 C 0.575,-0.066 1.18,-0.194 1.788,-0.415 2.106,-0.512 2.394,-0.671 2.681,-0.799 2.968,-0.99 3.255,-1.118 3.51,-1.343 4.084,-1.724 4.531,-2.267 4.946,-2.811 5.138,-3.129 5.329,-3.416 5.457,-3.766 L 5.68,-4.212 5.839,-4.756 c 0.033,-0.19 0.128,-0.384 0.128,-0.543 l 0.064,-0.509 c 0.095,-0.318 0,-0.671 0.031,-1.021 C 5.936,-7.5 5.744,-8.137 5.362,-8.681 5.01,-9.224 4.5,-9.67 4.021,-10.086 3.479,-10.436 2.968,-10.754 2.425,-11.01 1.883,-11.266 1.339,-11.457 0.862,-11.616 0.575,-11.713 0.318,-11.775 0.064,-11.841 0.033,-11.519 0,-11.2 -0.064,-10.851 l -0.19,2.139 -0.192,2.105 c -0.064,0.702 -0.096,1.374 -0.159,2.01 -0.064,0.637 -0.128,1.247 -0.128,1.821 0,0.606 -0.032,1.146 -0.032,1.658 -0.033,0.447 -0.033,0.831 -0.033,1.211 C -0.542,0.062 -0.254,0.062 0,0 m -4.754,-0.322 c 0.159,0.035 0.416,0.128 0.703,0.194 0.285,0.062 0.606,0.128 1.021,0.159 0.223,0.031 0.447,0.062 0.67,0.062 0.031,-0.38 0.095,-0.796 0.159,-1.277 0.031,-0.508 0.095,-1.052 0.128,-1.627 0.064,-0.605 0.159,-1.211 0.223,-1.848 0.064,-0.671 0.16,-1.343 0.224,-2.01 0.064,-0.703 0.159,-1.406 0.223,-2.14 0.064,-0.702 0.159,-1.436 0.223,-2.17 0.031,-0.38 0.064,-0.734 0.128,-1.114 -0.192,0 -0.385,-0.035 -0.544,-0.066 -0.287,-0.031 -0.541,0.031 -0.7,-0.031 -0.957,-0.288 -1.021,-1.98 0.318,-1.883 0.192,0 0.416,0.128 0.734,0.225 l 0.351,0.093 c 0.064,-0.509 0.095,-1.021 0.16,-1.498 l 0.191,-2.012 c 0.064,-0.667 0.096,-1.273 0.16,-1.882 0.031,-0.575 0.064,-1.115 0.128,-1.627 0,-0.509 0.031,-0.99 0.064,-1.402 0.031,-0.415 0.031,-0.768 0.031,-1.055 0,-0.319 -0.031,-0.54 -0.031,-0.734 0.031,-0.35 1.978,-0.16 1.914,0.194 l -0.159,0.699 c -0.065,0.287 -0.128,0.64 -0.192,1.055 -0.064,0.412 -0.128,0.893 -0.224,1.371 -0.064,0.513 -0.128,1.083 -0.223,1.658 -0.064,0.574 -0.159,1.215 -0.223,1.852 -0.097,0.64 -0.16,1.308 -0.256,2.011 -0.065,0.574 -0.129,1.149 -0.223,1.754 0.351,0.098 0.733,0.257 1.115,0.385 0.544,0.221 1.086,0.477 1.693,0.796 0.575,0.287 1.148,0.671 1.755,1.149 0.575,0.478 1.149,1.021 1.563,1.724 0.479,0.668 0.733,1.529 0.831,2.36 0,0.447 0.094,0.862 0,1.309 l -0.098,0.636 c -0.031,0.225 -0.095,0.385 -0.159,0.575 l -0.159,0.543 -0.033,0.031 0,0.097 -0.031,0.062 -0.064,0.16 -0.128,0.287 C 6.35,-2.873 6.095,-2.554 5.903,-2.17 5.424,-1.502 4.882,-0.862 4.244,-0.384 3.925,-0.128 3.574,0.062 3.255,0.252 2.904,0.412 2.586,0.606 2.234,0.734 1.565,1.021 0.862,1.211 0.224,1.34 c -0.352,0.062 -0.67,0.093 -0.989,0.128 0,0.221 0.062,0.38 0.032,0.509 -0.193,0.83 -1.755,0.892 -1.914,-0.094 0,-0.066 0.03,-0.163 0.064,-0.287 l -0.511,0 c -0.447,0 -0.862,0 -1.18,-0.035 l -0.736,0 C -5.423,1.53 -5.744,-0.481 -4.754,-0.322" /></g><g
           transform="translate(184.6909,288.1531)"
           id="g28"><path
             id="path30"
             style="fill:#231f20;fill-opacity:1;fill-rule:nonzero;stroke:none"
             d="m 0,0 c 0.062,-0.19 0.159,-0.38 0.223,-0.605 l 0.191,-0.8 0.192,-0.924 C 0.67,-2.647 0.701,-2.966 0.765,-3.319 0.798,-3.668 0.86,-4.018 0.893,-4.402 l 0.064,-1.053 c 0.031,-0.384 0,-0.733 0,-1.087 0,-0.38 0,-0.764 -0.033,-1.114 0,-0.353 0,-0.734 0.033,-1.087 -0.033,-0.349 0.031,-0.702 0.031,-1.021 0.064,-0.318 0.095,-0.636 0.159,-0.955 0.098,-0.287 0.192,-0.544 0.257,-0.8 0.095,-0.318 0.382,-0.543 0.733,-0.606 0.478,-0.062 0.893,0.288 0.957,0.766 l 0.064,0.287 0,0.066 0.095,0.539 c 0.034,0.159 0.096,0.257 0.096,0.354 0,0.062 -0.255,0.128 -0.637,0.128 -0.033,0.159 -0.097,0.318 -0.128,0.477 -0.064,0.288 -0.128,0.575 -0.159,0.893 -0.033,0.287 -0.064,0.637 -0.064,0.99 0,0.319 -0.033,0.703 -0.033,1.052 l 0,1.596 c 0.033,0.062 0.033,0.128 0.097,0.225 0.064,0.159 0.095,0.35 0.223,0.54 0.095,0.194 0.192,0.384 0.351,0.574 0.159,0.191 0.318,0.385 0.511,0.575 0.159,0.19 0.351,0.354 0.574,0.543 1.117,0.832 2.328,1.371 3.382,1.499 C 8.359,-0.862 7.912,0.543 7.209,0.384 6.668,0.288 5.711,-0.031 4.721,-0.543 4.051,-0.955 3.51,-1.308 2.84,-1.945 2.615,-2.139 2.425,-2.329 2.266,-2.55 2.202,-2.617 2.168,-2.647 2.137,-2.709 2.104,-2.52 2.104,-2.329 2.073,-2.139 2.042,-1.786 2.042,-1.467 2.009,-1.149 L 1.914,-0.287 1.819,0.447 1.722,1.118 C 1.722,1.18 1.658,1.375 1.594,1.499 1.563,1.627 1.499,1.786 1.468,1.821 0.031,2.807 -0.574,1.18 -0.223,0.384 -0.161,0.288 -0.064,0.159 0,0" /></g><g
           transform="translate(193.7817,283.2381)"
           id="g32"><path
             id="path34"
             style="fill:#231f20;fill-opacity:1;fill-rule:nonzero;stroke:none"
             d="m 0,0 c 0.446,0.384 0.957,0.734 1.403,0.897 0.447,0.19 0.862,0.287 1.18,0.318 L 2.042,-0.446 C 1.754,-1.401 1.403,-2.329 0.924,-3.187 0.701,-3.572 0.478,-3.956 0.128,-4.336 -0.159,-4.689 -0.544,-5.039 -0.893,-5.326 -1.245,-5.583 -1.66,-5.839 -2.011,-5.963 -2.202,-6.029 -2.363,-6.06 -2.458,-6.029 c -0.128,0 -0.159,0.031 -0.223,0.128 -0.254,0.416 -0.223,1.437 0.064,2.17 0.254,0.765 0.703,1.468 1.18,2.105 C -0.957,-1.021 -0.511,-0.508 0,0 m -3.797,-3.35 -0.192,-0.734 0,-0.062 -0.032,-0.031 0,-0.319 c -0.032,-0.128 -0.032,-0.225 -0.032,-0.353 0,-0.574 0,-1.149 0.415,-1.786 0.095,-0.128 0.287,-0.256 0.447,-0.384 0.191,-0.062 0.382,-0.159 0.574,-0.159 0.383,-0.062 0.67,0.031 0.988,0.097 0.544,0.221 1.021,0.508 1.437,0.862 0.446,0.349 0.829,0.702 1.18,1.149 0.32,0.349 0.638,0.862 0.926,1.339 l 0.192,0.35 C 2.073,-3.828 2.073,-4.243 2.17,-4.689 2.201,-4.942 2.265,-5.198 2.329,-5.423 l 0.095,-0.16 0.032,-0.093 0,-0.035 0.032,-0.031 0.032,-0.062 0.159,-0.256 c 0.032,-0.128 0.287,-0.384 0.448,-0.606 0.223,-0.159 0.446,-0.318 0.734,-0.415 0.575,-0.19 1.085,-0.097 1.498,0.097 0.669,0.332 1.406,0.926 1.992,1.696 0.029,-0.119 0.047,-0.237 0.107,-0.357 0.064,-0.225 0.351,-0.703 0.638,-0.928 0.575,-0.508 1.373,-0.667 2.043,-0.636 0.669,0.031 1.275,0.256 1.819,0.477 0.253,0.128 0.51,0.256 0.764,0.416 0.225,0.128 0.448,0.287 0.672,0.446 0.446,0.287 0.797,0.641 1.116,0.928 0.318,0.318 0.638,0.606 0.862,0.858 0.254,0.287 0.478,0.512 0.638,0.703 0.191,0.194 0.383,0.318 0.447,0.446 0.669,1.724 -0.99,2.011 -1.596,1.056 C 14.797,-1.976 14.702,-2.166 14.605,-2.36 14.51,-2.582 14.351,-2.807 14.159,-3.063 14,-3.35 13.743,-3.634 13.489,-3.921 13.233,-4.208 12.915,-4.53 12.563,-4.818 12.404,-4.942 12.211,-5.105 12.021,-5.229 11.829,-5.357 11.639,-5.485 11.414,-5.583 11,-5.804 10.521,-5.998 10.043,-6.029 9.597,-6.06 9.148,-5.963 8.863,-5.711 c -0.097,0.066 -0.161,0.128 -0.192,0.194 -0.064,0.032 -0.128,0.191 -0.192,0.319 -0.064,0.19 -0.095,0.415 -0.095,0.668 0,0.512 0.095,1.087 0.254,1.595 0.161,0.544 0.351,1.087 0.574,1.596 0.224,0.481 0.48,0.959 0.734,1.405 0.257,0.447 0.544,0.831 0.831,1.149 0.128,0.128 0.287,0.319 0.383,0.35 0.03,0.031 0.064,0.097 0.192,0.128 l 0.19,0.097 c 0.32,0.062 0.607,0.093 0.831,0.062 0.254,-0.031 0.477,-0.097 0.636,-0.19 0.065,-0.031 0.129,-0.066 0.193,-0.128 L 13.297,1.468 13.33,1.437 c 0.031,0 0.064,-0.031 0.095,-0.031 1.627,-0.637 2.106,0.99 0.095,1.913 -0.287,0.129 -0.67,0.098 -1.085,0.098 -0.414,0 -0.893,-0.098 -1.371,-0.288 l -0.097,-0.031 -0.03,0 L 10.872,3.063 10.841,3.032 10.68,2.939 C 10.618,2.904 10.49,2.811 10.362,2.683 10.074,2.458 9.946,2.268 9.756,2.077 9.436,1.631 9.117,1.184 8.863,0.672 8.607,0.194 8.351,-0.349 8.127,-0.893 7.904,-1.433 7.714,-2.007 7.522,-2.617 7.502,-2.69 7.505,-2.774 7.487,-2.849 7.141,-2.899 6.739,-3.192 6.478,-3.762 6.093,-4.593 4.913,-5.711 4.274,-5.711 c -0.382,0 -0.701,0.641 -0.829,1.247 -0.128,0.667 -0.064,1.498 0.064,2.391 0.129,0.893 0.319,1.821 0.416,2.873 l 0,0.765 C 3.925,1.79 3.956,3.001 3.541,3.032 3.286,3.063 2.776,3.001 2.329,2.904 1.85,2.811 1.308,2.617 0.733,2.33 0.128,2.011 -0.447,1.596 -1.021,0.99 -1.5,0.481 -2.042,-0.159 -2.522,-0.858 -3.032,-1.561 -3.51,-2.391 -3.797,-3.35" /></g><g
           transform="translate(212.7856,282.3802)"
           id="g36"><path
             id="path38"
             style="fill:#231f20;fill-opacity:1;fill-rule:nonzero;stroke:none"
             d="m 0,0 c 0.19,0.606 0.478,1.18 0.765,1.627 0.32,0.446 0.702,0.796 1.054,0.986 0.223,0.097 0.382,0.163 0.575,0.163 0,-0.322 0.064,-0.575 0.158,-0.575 l 0.255,0 C 2.904,2.167 3.03,2.135 3.127,2.135 3.286,2.104 3.415,2.042 3.541,1.976 3.702,1.914 3.861,1.848 4.02,1.72 4.338,1.53 4.659,1.242 4.946,0.858 c 0.287,-0.38 0.575,-0.827 0.765,-1.37 0.192,-0.544 0.287,-1.15 0.256,-1.755 0,-0.159 -0.033,-0.318 -0.064,-0.447 L 5.808,-3.191 C 5.68,-3.479 5.616,-3.704 5.359,-4.053 5.072,-4.565 4.531,-4.946 3.861,-5.105 3.222,-5.268 2.488,-5.233 1.85,-5.043 1.531,-4.946 1.211,-4.756 0.926,-4.597 0.703,-4.406 0.415,-4.15 0.287,-3.925 0.223,-3.832 0.128,-3.606 0.031,-3.447 0,-3.351 -0.064,-3.16 -0.095,-3.001 c -0.097,0.318 -0.128,0.672 -0.161,1.021 0,0.672 0.097,1.339 0.256,1.98 m -0.99,-3.96 c 0.064,-0.159 0.128,-0.318 0.287,-0.54 0.544,-0.831 1.342,-1.343 2.202,-1.595 0.861,-0.287 1.787,-0.319 2.649,-0.128 0.893,0.221 1.722,0.765 2.202,1.529 0.223,0.257 0.446,0.734 0.605,1.118 0.033,0.191 0.128,0.416 0.159,0.606 l 0.097,0.606 C 7.275,-1.564 7.178,-0.8 6.988,-0.097 6.796,0.571 6.444,1.18 6.126,1.72 5.775,2.167 5.423,2.582 5.072,2.869 5.233,3.156 5.328,3.444 5.2,3.541 5.105,3.603 4.754,3.797 4.402,3.956 4.051,4.115 3.574,4.274 2.999,4.336 2.424,4.368 1.724,4.244 1.116,3.859 0.51,3.51 0.031,2.966 -0.352,2.36 -0.703,1.755 -0.99,1.052 -1.18,0.318 c -0.193,-0.734 -0.288,-1.533 -0.257,-2.36 0.033,-0.416 0.098,-0.831 0.192,-1.246 0.065,-0.225 0.129,-0.416 0.255,-0.672" /></g><g
           transform="translate(220.9771,284.1663)"
           id="g40"><path
             id="path42"
             style="fill:#231f20;fill-opacity:1;fill-rule:nonzero;stroke:none"
             d="m 0,0 c 0,-0.575 0.033,-1.215 0.033,-1.914 0,-0.734 0,-1.503 0.064,-2.364 0.031,-0.191 0.031,-0.412 0.064,-0.637 l 0.095,-0.703 c 0.032,-0.252 0.128,-0.446 0.16,-0.668 0.063,-0.225 0.127,-0.481 0.223,-0.702 0.097,-0.225 0.192,-0.478 0.32,-0.703 0.159,-0.256 0.288,-0.543 0.765,-0.765 0.256,-0.128 0.606,-0.097 0.831,0.031 0.19,0.097 0.318,0.225 0.446,0.35 0.19,0.225 0.35,0.481 0.478,0.702 0.51,0.928 0.797,1.883 1.149,2.842 l 0.382,1.052 c 0.128,-0.446 0.287,-0.893 0.48,-1.339 0.413,-0.99 0.862,-1.914 1.627,-2.745 0.192,-0.225 0.382,-0.416 0.702,-0.575 0.287,-0.159 0.701,-0.287 1.117,-0.159 0.191,0.063 0.382,0.159 0.51,0.256 l 0.192,0.16 0.126,0.128 0,0.031 0.033,0 0.031,0.062 c 0.129,0.194 0.256,0.318 0.382,0.606 0.513,1.021 0.639,1.917 0.768,2.776 0.095,0.861 0.127,1.661 0.127,2.395 l 0,1.976 c 0,0.574 -0.032,1.087 0,1.502 0,0.416 0.032,0.765 0.032,0.987 0,1.308 -1.978,1.533 -1.883,-0.062 0,-0.257 0.064,-0.575 0.128,-1.021 C 9.415,1.083 9.477,0.605 9.541,0 9.574,-0.575 9.638,-1.215 9.669,-1.914 9.702,-2.617 9.702,-3.351 9.638,-4.15 9.605,-4.531 9.574,-4.946 9.477,-5.331 9.446,-5.521 9.415,-5.711 9.351,-5.905 9.287,-6.126 9.223,-6.254 9.159,-6.414 L 9.095,-6.542 9,-6.67 8.84,-6.958 8.807,-6.958 8.776,-7.02 C 8.743,-7.054 8.743,-7.054 8.712,-7.054 8.681,-7.117 8.648,-7.117 8.617,-7.117 8.553,-7.179 8.232,-7.054 7.945,-6.767 7.404,-6.158 6.924,-5.265 6.542,-4.372 6.19,-3.51 5.841,-2.489 5.777,-1.662 l -0.033,0.066 0,0.062 c 0,0.195 -0.095,0.385 -0.287,0.482 C 5.169,-0.893 4.82,-1.021 4.659,-1.309 4.148,-2.298 3.894,-3.191 3.543,-4.15 3.191,-5.074 2.873,-6.033 2.458,-6.798 2.33,-6.988 2.234,-7.147 2.139,-7.245 c -0.033,0.032 -0.064,0.066 -0.097,0.128 -0.095,0.159 -0.159,0.35 -0.223,0.544 -0.062,0.19 -0.126,0.381 -0.159,0.606 -0.064,0.19 -0.126,0.446 -0.16,0.605 0,0.191 -0.03,0.384 -0.03,0.544 -0.033,0.221 -0.033,0.415 -0.033,0.606 -0.031,0.795 0,1.564 0.033,2.263 l 0.095,1.918 C 1.596,0.54 1.66,1.021 1.693,1.437 1.724,1.817 1.819,2.135 1.819,2.36 1.98,3.638 -0.031,3.797 -0.095,2.458 -0.095,2.232 -0.031,1.914 -0.031,1.499 -0.031,1.083 0,0.574 0,0" /></g><g
           transform="translate(232.9058,283.848)"
           id="g44"><path
             id="path46"
             style="fill:#231f20;fill-opacity:1;fill-rule:nonzero;stroke:none"
             d="m 0,0 c 0.033,-0.447 0.033,-0.959 0.064,-1.502 0,-0.54 0,-1.115 0.033,-1.755 l 0,-2.012 c 0,-0.698 0.031,-1.432 0.031,-2.201 l 0,-0.349 C 0.097,-7.916 0.097,-7.979 0.097,-8.044 l 0.031,0 0,-0.062 C 0.097,-8.394 0.32,-8.615 0.607,-8.65 c 0.319,-0.062 0.606,0.159 0.637,0.482 l 0,0.03 0.033,0.032 0,0.19 c 0.064,0.415 0.192,0.862 0.287,1.308 0.224,0.734 0.447,1.468 0.701,2.201 0.288,0.703 0.575,1.437 0.926,2.077 0.351,0.668 0.734,1.309 1.181,1.72 0.128,0.067 0.223,0.194 0.32,0.194 0.031,0.032 0.126,0.062 0.095,0.062 0.095,0 0.254,0.032 0.192,0 0.031,-0.03 0.19,-0.127 0.287,-0.349 0.255,-0.512 0.414,-1.18 0.542,-1.786 0.159,-0.64 0.287,-1.215 0.446,-1.789 0.16,-0.54 0.351,-1.084 0.575,-1.53 0.192,-0.478 0.48,-0.893 0.767,-1.215 0.318,-0.319 0.636,-0.54 0.893,-0.637 1.531,-0.508 1.657,1.468 0.7,1.755 C 9.094,-5.874 8.935,-5.874 8.776,-5.746 8.617,-5.618 8.392,-5.393 8.201,-5.074 8.009,-4.756 7.819,-4.341 7.627,-3.832 7.435,-3.351 7.275,-2.776 7.116,-2.139 6.893,-1.534 6.734,-0.862 6.35,-0.128 6.254,0.062 6.126,0.252 5.903,0.446 5.713,0.637 5.425,0.827 5.041,0.858 4.787,0.893 4.756,0.858 4.659,0.827 4.436,0.796 4.372,0.765 4.212,0.699 3.958,0.605 3.797,0.411 3.606,0.287 2.937,-0.354 2.553,-1.056 2.17,-1.79 1.883,-2.365 1.628,-2.939 1.405,-3.51 l 0,0.253 0.095,1.755 C 1.531,-0.959 1.564,-0.447 1.564,0 L 1.66,1.145 c 0.032,0.288 0.064,0.543 0.095,0.703 -0.159,2.139 -1.914,1.308 -1.914,0 0,-0.16 0.064,-0.415 0.095,-0.703 C -0.031,0.827 -0.031,0.446 0,0" /></g><g
           transform="translate(244.4185,289.5276)"
           id="g48"><path
             id="path50"
             style="fill:#231f20;fill-opacity:1;fill-rule:nonzero;stroke:none"
             d="M 0,0 C 0.575,0 1.052,0.509 1.052,0.955 1.085,1.339 0.606,1.658 0,1.689 -0.574,1.689 -1.085,1.114 -1.085,0.734 -1.085,0.318 -0.605,0 0,0" /></g><g
           transform="translate(243.9722,278.5486)"
           id="g52"><path
             id="path54"
             style="fill:#231f20;fill-opacity:1;fill-rule:nonzero;stroke:none"
             d="m 0,0 c 0,-0.252 -0.031,-0.509 -0.064,-0.734 0,-0.252 0,-0.477 -0.031,-0.703 -0.033,-0.159 -0.033,-0.349 -0.064,-0.54 -0.033,-0.159 -0.033,-0.318 -0.097,-0.481 0,-0.124 -0.062,-0.252 -0.062,-0.349 0,-1.309 1.88,-1.565 1.88,0.256 0,0.031 -0.03,0.093 -0.063,0.19 -0.062,0.097 -0.062,0.225 -0.096,0.384 0,0.191 -0.03,0.381 -0.064,0.606 0,0.19 -0.03,0.416 -0.03,0.637 -0.034,0.256 -0.065,0.482 -0.065,0.765 0,0.256 -0.031,0.512 -0.031,0.831 l 0,0.862 c 0,0.287 -0.033,0.574 -0.033,0.893 l 0,3.35 c 0.033,0.225 0.033,0.477 0,0.702 0.033,0.226 0.033,0.416 0.033,0.575 0,0.159 0.031,0.318 0.031,0.446 0,0.098 0.065,0.191 0.065,0.257 0,1.755 -2.043,1.498 -1.884,-0.257 0,-0.062 0.065,-0.128 0.129,-0.287 0,-0.097 0.064,-0.221 0.095,-0.384 0.064,-0.159 0.095,-0.35 0.128,-0.54 0.031,-0.194 0.031,-0.384 0.095,-0.605 0.033,-0.226 0.064,-0.451 0.064,-0.734 0,-0.256 0.033,-0.543 0.033,-0.831 C 0,4.053 0.031,3.766 0.031,3.479 0.064,3.191 0.064,2.904 0.031,2.585 0.064,2.298 0.064,2.011 0.064,1.724 0.064,1.436 0.031,1.149 0.031,0.862 0.031,0.543 0.031,0.287 0,0" /></g><g
           transform="translate(247.6079,279.5071)"
           id="g56"><path
             id="path58"
             style="fill:#231f20;fill-opacity:1;fill-rule:nonzero;stroke:none"
             d="M 0,0 C 0.254,0.765 0.701,1.468 1.18,2.104 1.66,2.71 2.106,3.223 2.617,3.731 3.063,4.115 3.574,4.465 4.02,4.628 4.467,4.818 4.882,4.915 5.201,4.946 L 4.659,3.285 C 4.372,2.33 4.02,1.402 3.541,0.544 3.317,0.159 3.094,-0.225 2.743,-0.605 2.458,-0.958 2.073,-1.308 1.722,-1.595 1.373,-1.852 0.957,-2.108 0.606,-2.232 0.416,-2.298 0.254,-2.329 0.159,-2.298 0.031,-2.298 0,-2.267 -0.064,-2.17 -0.32,-1.754 -0.287,-0.733 0,0 M -0.575,-3.288 C -0.382,-3.35 -0.192,-3.447 0,-3.447 c 0.382,-0.062 0.67,0.031 0.988,0.097 0.544,0.221 1.021,0.508 1.437,0.862 0.446,0.349 0.83,0.702 1.18,1.149 C 3.925,-0.99 4.244,-0.478 4.531,0 L 4.723,0.35 C 4.69,-0.097 4.69,-0.512 4.785,-0.958 4.818,-1.211 4.882,-1.467 4.946,-1.692 l 0.096,-0.16 0.03,-0.093 0,-0.035 0.033,-0.031 0.031,-0.062 0.161,-0.256 c 0.032,-0.129 0.286,-0.384 0.447,-0.606 0.223,-0.159 0.446,-0.318 0.734,-0.415 0.574,-0.191 1.085,-0.097 1.499,0.097 0.766,0.38 1.659,1.052 2.265,2.007 C 11.678,1.083 9.828,1.565 9.094,-0.031 8.71,-0.862 7.53,-1.98 6.891,-1.98 6.509,-1.98 6.19,-1.339 6.062,-0.733 5.934,-0.066 5.999,0.765 6.126,1.658 6.254,2.551 6.445,3.479 6.542,4.531 l 0,0.765 c 0,0.225 0.031,1.436 -0.385,1.467 C 5.903,6.794 5.393,6.732 4.946,6.635 4.467,6.542 3.925,6.348 3.351,6.061 2.743,5.742 2.17,5.327 1.596,4.721 1.116,4.212 0.575,3.572 0.095,2.873 -0.416,2.17 -0.893,1.34 -1.18,0.381 l -0.192,-0.734 0,-0.062 -0.031,-0.031 0,-0.319 c -0.034,-0.128 -0.034,-0.225 -0.034,-0.353 0,-0.574 0,-1.149 0.416,-1.786 0.095,-0.128 0.287,-0.256 0.446,-0.384" /></g><g
           transform="translate(204.105,210.9842)"
           id="g60"><path
             id="path62"
             style="fill:#231f20;fill-opacity:1;fill-rule:nonzero;stroke:none"
             d="m 0,0 c -0.411,-0.316 -0.922,-0.476 -1.533,-0.476 -0.54,0 -0.939,0.106 -1.197,0.318 -0.259,0.211 -0.388,0.481 -0.388,0.81 0,0.306 0.129,0.599 0.388,0.881 0.258,0.282 0.657,0.423 1.197,0.423 0.4,0 0.811,-0.077 1.234,-0.229 C 0.124,1.574 0.558,1.392 1.004,1.181 0.746,0.711 0.411,0.317 0,0 M 15.645,54.051 C 13.378,53.358 11.229,52.395 9.197,51.162 7.165,49.929 5.297,48.466 3.594,46.775 1.891,45.084 0.417,43.234 -0.828,41.226 c -1.245,-2.009 -2.214,-4.129 -2.907,-6.36 -0.693,-2.232 -1.039,-4.511 -1.039,-6.836 0,-1.504 0.158,-2.977 0.476,-4.422 0.317,-1.445 0.716,-2.86 1.197,-4.246 0.482,-1.386 1.005,-2.754 1.568,-4.105 0.564,-1.351 1.087,-2.677 1.568,-3.982 C 0.517,9.972 0.917,8.68 1.233,7.399 1.551,6.12 1.709,4.857 1.709,3.612 1.709,3.495 1.697,3.371 1.674,3.242 1.65,3.113 1.639,2.978 1.639,2.836 0.793,3.119 -0.018,3.26 -0.792,3.26 -1.286,3.26 -1.773,3.171 -2.255,2.995 -2.736,2.819 -3.171,2.578 -3.559,2.273 -3.946,1.967 -4.257,1.604 -4.492,1.181 -4.727,0.758 -4.845,0.3 -4.845,-0.193 c 0,-0.517 0.229,-1.011 0.687,-1.481 0.458,-0.47 1.098,-0.704 1.921,-0.704 0.94,0 1.761,0.3 2.466,0.899 0.705,0.598 1.28,1.309 1.727,2.131 0.61,-0.329 1.245,-0.705 1.902,-1.128 0.658,-0.422 1.345,-0.816 2.062,-1.18 0.716,-0.364 1.468,-0.669 2.255,-0.916 0.787,-0.246 1.615,-0.37 2.484,-0.37 1.55,0 2.866,0.447 3.946,1.339 1.081,0.893 1.985,2.419 2.713,4.581 L 16.579,3.119 C 16.391,2.508 16.162,1.956 15.891,1.462 15.621,0.969 15.298,0.535 14.922,0.159 c -0.376,-0.376 -0.828,-0.664 -1.356,-0.863 -0.529,-0.2 -1.157,-0.3 -1.885,-0.3 -0.705,0 -1.422,0.129 -2.15,0.388 C 8.803,-0.358 8.058,-0.047 7.294,0.317 6.53,0.682 5.755,1.069 4.968,1.48 4.181,1.891 3.389,2.25 2.59,2.555 c 0.118,0.329 0.194,0.669 0.229,1.022 0.035,0.352 0.053,0.704 0.053,1.057 0,1.432 -0.129,2.83 -0.388,4.193 -0.258,1.362 -0.575,2.701 -0.951,4.017 -0.376,1.315 -0.793,2.625 -1.251,3.928 -0.458,1.304 -0.875,2.625 -1.251,3.964 -0.376,1.339 -0.693,2.701 -0.951,4.087 -0.259,1.386 -0.388,2.831 -0.388,4.334 0,2.185 0.294,4.287 0.881,6.307 0.587,2.021 1.415,3.911 2.484,5.674 1.069,1.761 2.338,3.37 3.806,4.827 1.468,1.456 3.083,2.701 4.845,3.735 1.761,1.033 3.641,1.838 5.637,2.413 1.997,0.575 4.052,0.864 6.166,0.864 1.692,0 3.295,-0.229 4.81,-0.687 1.515,-0.458 2.848,-1.117 3.999,-1.974 1.151,-0.857 2.061,-1.902 2.731,-3.136 0.669,-1.233 1.004,-2.613 1.004,-4.14 0,-1.01 -0.141,-1.979 -0.423,-2.907 -0.282,-0.928 -0.669,-1.797 -1.163,-2.607 -0.493,-0.811 -1.056,-1.545 -1.691,-2.202 -0.634,-0.658 -1.303,-1.222 -2.008,-1.692 l 0.387,-0.423 c 0.964,0.682 1.862,1.41 2.696,2.185 0.834,0.775 1.556,1.609 2.167,2.502 0.611,0.893 1.092,1.85 1.444,2.872 0.353,1.021 0.529,2.131 0.529,3.329 0,1.55 -0.282,2.995 -0.846,4.334 -0.564,1.339 -1.409,2.502 -2.537,3.488 -1.127,0.987 -2.53,1.762 -4.21,2.326 -1.68,0.564 -3.624,0.845 -5.832,0.845 -2.349,0 -4.656,-0.346 -6.923,-1.039" /></g><g
           transform="translate(226.4268,230.1351)"
           id="g64"><path
             id="path66"
             style="fill:#231f20;fill-opacity:1;fill-rule:nonzero;stroke:none"
             d="M 0,0 C 0.54,0 0.998,0.187 1.374,0.563 1.75,0.939 1.938,1.468 1.938,2.149 1.938,2.736 1.809,3.235 1.55,3.646 1.292,4.058 0.869,4.263 0.282,4.263 c -0.588,0 -1.069,-0.2 -1.445,-0.599 -0.376,-0.399 -0.564,-0.975 -0.564,-1.727 0,-0.681 0.188,-1.174 0.564,-1.479 C -0.787,0.152 -0.399,0 0,0" /></g><g
           transform="translate(253.0117,216.0936)"
           id="g68"><path
             id="path70"
             style="fill:#231f20;fill-opacity:1;fill-rule:nonzero;stroke:none"
             d="m 0,0 c -0.364,-0.458 -0.787,-0.881 -1.269,-1.269 -0.481,-0.387 -1.016,-0.71 -1.603,-0.968 -0.587,-0.259 -1.221,-0.388 -1.902,-0.388 -0.635,0 -1.181,0.129 -1.639,0.388 -0.458,0.258 -0.839,0.698 -1.145,1.321 -0.305,0.623 -0.546,1.451 -0.722,2.484 -0.029,0.166 -0.049,0.381 -0.075,0.56 0.055,0.143 0.121,0.306 0.163,0.427 l -0.211,0.14 c 0,0 -0.019,-0.036 -0.023,-0.041 -0.103,0.823 -0.195,1.722 -0.26,2.79 1.104,2.701 1.962,5.232 2.573,7.593 0.611,2.36 1.033,4.539 1.268,6.536 0.977,0.041 1.928,0.075 2.87,0.107 -0.056,-1.258 -0.122,-2.528 -0.122,-3.701 0,-3.077 0.195,-5.86 0.582,-8.351 C -1.127,5.138 -0.576,3.019 0.141,1.269 0.237,1.034 0.357,0.865 0.459,0.645 0.306,0.43 0.183,0.229 0,0 m -10.112,0 c -0.365,-0.458 -0.787,-0.881 -1.269,-1.269 -0.481,-0.387 -1.016,-0.71 -1.603,-0.968 -0.587,-0.259 -1.222,-0.388 -1.903,-0.388 -0.634,0 -1.18,0.129 -1.638,0.388 -0.458,0.258 -0.84,0.698 -1.145,1.321 -0.306,0.623 -0.547,1.451 -0.723,2.484 -0.018,0.106 -0.03,0.246 -0.047,0.357 0.028,0.071 0.073,0.156 0.1,0.224 0.188,0.482 0.329,0.84 0.423,1.075 l -0.211,0.141 c -0.119,-0.244 -0.278,-0.484 -0.408,-0.727 -0.105,0.826 -0.197,1.731 -0.262,2.806 1.104,2.701 1.962,5.232 2.572,7.593 0.599,2.314 1.012,4.447 1.249,6.411 0.078,-0.001 0.153,-0.016 0.231,-0.016 l 1.709,0 c 0.81,0 1.756,0.024 2.836,0.071 -0.188,-1.363 -0.34,-2.931 -0.458,-4.704 -0.117,-1.774 -0.176,-3.764 -0.176,-5.973 0,-2.302 0.094,-4.269 0.282,-5.902 0.123,-1.064 0.314,-1.965 0.536,-2.789 C -10.054,0.087 -10.074,0.048 -10.112,0 m -8.158,23.801 c 0.094,0.823 0.2,1.533 0.318,2.132 0.117,0.599 0.246,1.075 0.387,1.427 0.141,0.352 0.306,0.529 0.493,0.529 0.071,0 0.159,-0.065 0.265,-0.194 0.105,-0.13 0.2,-0.387 0.282,-0.775 0.082,-0.388 0.158,-0.934 0.229,-1.639 0.07,-0.704 0.106,-1.644 0.106,-2.819 l 0,-1.198 c -0.135,0 -0.264,-0.014 -0.397,-0.017 -0.454,0.037 -0.893,0.078 -1.26,0.141 -0.236,0.04 -0.425,0.086 -0.636,0.129 0.064,0.798 0.132,1.573 0.213,2.284 m 10.113,0 c 0.094,0.823 0.199,1.533 0.317,2.132 0.117,0.599 0.247,1.075 0.388,1.427 0.14,0.352 0.305,0.529 0.493,0.529 0.07,0 0.159,-0.065 0.264,-0.194 0.106,-0.13 0.2,-0.387 0.282,-0.775 0.082,-0.388 0.159,-0.934 0.229,-1.639 0.071,-0.704 0.106,-1.644 0.106,-2.819 l 0,-0.947 c -0.186,-0.013 -0.419,-0.026 -0.722,-0.039 -0.427,-0.018 -0.999,-0.037 -1.579,-0.055 0.066,0.836 0.137,1.64 0.222,2.38 M -8.756,11.363 c 0,1.269 0.018,2.608 0.053,4.017 0.035,1.41 0.088,2.784 0.159,4.123 0.399,0 0.786,0.012 1.162,0.035 0.376,0.024 0.764,0.035 1.163,0.035 C -6.36,17.624 -6.648,15.639 -7.083,13.618 -7.517,11.598 -8.075,9.52 -8.756,7.382 l 0,3.981 z m -10.113,0 c 0,1.269 0.018,2.608 0.053,4.017 0.036,1.41 0.088,2.784 0.159,4.123 0.399,0 0.787,0.012 1.163,0.035 0.276,0.017 0.566,0.021 0.856,0.026 0.099,-0.013 0.201,-0.01 0.302,-0.021 -0.142,-1.94 -0.426,-3.915 -0.859,-5.925 -0.434,-2.02 -0.992,-4.098 -1.674,-6.236 l 0,3.981 z M 0.159,22.48 c 0.07,1.492 0.182,3.001 0.334,4.528 0.153,1.527 0.347,3.018 0.582,4.474 0.235,1.457 0.51,2.749 0.828,3.877 0.317,1.127 0.675,2.037 1.075,2.73 0.398,0.693 0.845,1.039 1.338,1.039 0.517,0 0.969,-0.264 1.357,-0.792 0.388,-0.528 0.71,-1.269 0.969,-2.22 C 6.9,35.165 7.094,34.025 7.223,32.698 7.353,31.371 7.417,29.909 7.417,28.312 7.417,25.774 7.2,23.32 6.765,20.947 6.331,18.575 5.802,16.373 5.18,14.341 4.557,12.309 3.911,10.482 3.242,8.861 2.572,7.241 1.991,5.914 1.498,4.88 1.239,5.961 1.022,7.088 0.846,8.263 0.669,9.437 0.522,10.612 0.405,11.786 0.288,12.961 0.2,14.118 0.141,15.257 c -0.059,1.139 -0.088,2.202 -0.088,3.188 0,0.387 0.027,0.884 0.034,1.301 0.43,0.012 0.917,0.028 1.305,0.039 0.869,0.023 1.591,0.041 2.167,0.052 0.575,0.012 0.921,0.03 1.039,0.053 0.611,0.047 1.016,0.206 1.216,0.476 0.2,0.27 0.299,0.57 0.299,0.898 0,0.236 -0.188,0.353 -0.564,0.353 -0.093,0 -0.281,-0.012 -0.563,-0.035 C 4.704,21.558 4.504,21.546 4.387,21.546 4.222,21.523 3.864,21.5 3.312,21.476 2.76,21.453 2.079,21.429 1.269,21.405 0.933,21.396 0.502,21.386 0.13,21.376 0.144,21.762 0.139,22.072 0.159,22.48 M 25.316,1.057 C 24.894,0.34 24.301,-0.37 23.537,-1.075 22.774,-1.779 21.805,-2.396 20.63,-2.924 c -1.174,-0.529 -2.643,-0.793 -4.404,-0.793 -1.551,0 -2.754,0.346 -3.612,1.039 -0.857,0.693 -1.286,1.568 -1.286,2.625 0,0.064 0.022,0.122 0.025,0.185 0.207,0.366 0.475,0.757 0.627,1.101 0.29,0.655 0.453,1.05 0.517,1.244 0.206,0.23 0.359,0.488 0.61,0.694 0.529,0.434 1.111,0.81 1.745,1.128 0.634,0.317 1.256,0.581 1.867,0.793 0.235,0.07 0.429,0.123 0.582,0.158 0.152,0.035 0.229,0.147 0.229,0.335 0,0.07 -0.042,0.146 -0.124,0.229 -0.082,0.082 -0.252,0.123 -0.51,0.123 -0.353,0 -0.852,0.047 -1.498,0.141 -0.646,0.094 -1.28,0.247 -1.903,0.458 -0.622,0.212 -1.162,0.5 -1.62,0.863 -0.459,0.365 -0.688,0.817 -0.688,1.357 0,0.752 0.376,1.339 1.128,1.762 0.751,0.422 1.691,0.634 2.818,0.634 0.799,0 1.445,-0.041 1.939,-0.123 0.493,-0.083 0.892,-0.176 1.198,-0.282 0.305,-0.106 0.54,-0.2 0.704,-0.282 0.165,-0.082 0.306,-0.124 0.423,-0.124 0.07,0 0.153,0.054 0.247,0.159 0.094,0.105 0.182,0.235 0.264,0.388 0.082,0.152 0.153,0.305 0.212,0.458 0.058,0.153 0.088,0.276 0.088,0.37 0,0.328 -0.153,0.528 -0.458,0.598 -0.541,0.188 -1.075,0.318 -1.604,0.388 -0.528,0.071 -1.051,0.106 -1.568,0.106 -0.892,0 -1.732,-0.112 -2.519,-0.335 -0.787,-0.223 -1.48,-0.534 -2.079,-0.933 -0.599,-0.4 -1.075,-0.899 -1.427,-1.498 -0.352,-0.599 -0.529,-1.263 -0.529,-1.991 0,-0.799 0.2,-1.427 0.6,-1.885 C 11.023,5.708 11.458,5.35 11.927,5.092 12.491,4.81 13.137,4.61 13.865,4.493 13.654,4.398 13.295,4.24 12.791,4.017 12.285,3.793 11.774,3.477 11.258,3.065 10.741,2.654 10.283,2.132 9.883,1.498 9.484,0.863 9.285,0.111 9.285,-0.758 9.285,-0.937 9.322,-1.096 9.339,-1.266 9.094,-1.481 8.885,-1.733 8.615,-1.92 8.004,-2.343 7.347,-2.555 6.642,-2.555 c -0.564,0 -1.08,0.153 -1.551,0.458 C 4.622,-1.791 4.187,-1.363 3.788,-0.811 3.389,-0.258 3.03,0.394 2.713,1.145 2.396,1.897 2.108,2.73 1.85,3.647 2.531,4.962 3.359,6.73 4.334,8.95 c 0.975,2.219 1.909,4.903 2.801,8.051 0.681,2.49 1.163,4.927 1.445,7.311 0.282,2.384 0.422,4.54 0.422,6.466 0,3.288 -0.299,5.72 -0.898,7.294 -0.599,1.574 -1.544,2.36 -2.836,2.36 -0.87,0 -1.663,-0.369 -2.378,-1.11 C 2.173,38.583 1.544,37.59 1.004,36.345 0.464,35.1 0,33.656 -0.388,32.011 -0.775,30.367 -1.098,28.64 -1.356,26.832 -1.615,25.025 -1.802,23.19 -1.919,21.325 -2.591,21.31 -3.292,21.295 -4.007,21.28 c -0.011,0.221 -0.191,0.337 -0.556,0.337 -0.022,0 -0.099,-0.007 -0.131,-0.008 0.005,0.28 0.008,0.561 0.025,0.836 0.024,0.388 0.036,0.757 0.036,1.11 0,1.973 -0.153,3.429 -0.458,4.369 -0.306,0.94 -0.705,1.409 -1.199,1.409 -0.258,0 -0.569,-0.141 -0.933,-0.422 -0.364,-0.283 -0.64,-0.623 -0.828,-1.022 -0.141,-0.282 -0.406,-0.946 -0.793,-1.991 -0.372,-1.004 -0.739,-2.53 -1.1,-4.521 -0.537,-0.014 -1.035,-0.028 -1.648,-0.042 -1.022,-0.023 -2.097,-0.047 -3.224,-0.071 0,0.4 0.011,0.793 0.035,1.181 0.023,0.388 0.035,0.757 0.035,1.11 0,1.973 -0.152,3.429 -0.458,4.369 -0.305,0.94 -0.705,1.409 -1.198,1.409 -0.259,0 -0.57,-0.141 -0.934,-0.422 -0.364,-0.283 -0.64,-0.623 -0.828,-1.022 -0.141,-0.282 -0.405,-0.946 -0.793,-1.991 -0.335,-0.906 -0.666,-2.293 -0.994,-4.002 -0.003,0 -0.007,10e-4 -0.007,10e-4 -0.52,0.19 -0.878,0.372 -1.078,0.548 -0.199,0.176 -0.311,0.287 -0.334,0.335 l -0.141,-0.318 c 0.293,-0.523 0.676,-0.938 1.099,-1.303 l -4.094,0 c -1.41,0 -2.56,0.076 -3.453,0.229 -0.893,0.153 -1.598,0.323 -2.114,0.51 -0.517,0.189 -0.875,0.371 -1.075,0.547 -0.2,0.176 -0.311,0.287 -0.335,0.335 l -0.141,-0.318 c 0.329,-0.587 0.74,-1.074 1.234,-1.462 0.493,-0.387 1.033,-0.699 1.62,-0.934 0.588,-0.234 1.216,-0.399 1.885,-0.493 0.67,-0.094 1.345,-0.141 2.027,-0.141 l 1.709,0 c 0.81,0 1.755,0.024 2.836,0.071 -0.188,-1.363 -0.341,-2.931 -0.458,-4.704 -0.118,-1.774 -0.176,-3.764 -0.176,-5.973 0,-2.302 0.093,-4.269 0.281,-5.902 0.122,-1.054 0.311,-1.947 0.53,-2.766 -0.225,-0.291 -0.433,-0.622 -0.67,-0.881 -0.517,-0.563 -1.063,-1.021 -1.639,-1.374 -0.576,-0.352 -1.157,-0.528 -1.744,-0.528 -0.587,0 -1.086,0.329 -1.498,0.986 -0.411,0.659 -0.616,1.821 -0.616,3.489 0,1.245 0.029,2.284 0.088,3.118 0.059,0.834 0.129,1.51 0.212,2.026 0.082,0.517 0.152,0.887 0.211,1.11 0.059,0.223 0.088,0.347 0.088,0.37 0,0.024 -0.041,0.1 -0.124,0.229 -0.082,0.129 -0.188,0.253 -0.317,0.37 -0.129,0.117 -0.281,0.229 -0.458,0.335 -0.176,0.106 -0.358,0.158 -0.546,0.158 -0.211,0 -0.399,-0.234 -0.563,-0.705 -0.165,-0.469 -0.3,-1.062 -0.406,-1.779 -0.106,-0.716 -0.188,-1.491 -0.246,-2.325 -0.059,-0.834 -0.089,-1.615 -0.089,-2.343 0,-1.41 0.089,-2.561 0.265,-3.454 0.176,-0.892 0.422,-1.591 0.74,-2.096 0.317,-0.505 0.681,-0.851 1.092,-1.039 0.411,-0.188 0.863,-0.282 1.356,-0.282 0.706,0 1.357,0.158 1.956,0.476 0.599,0.316 1.151,0.716 1.656,1.197 0.505,0.482 0.951,1.022 1.339,1.621 0.079,0.121 0.13,0.234 0.204,0.354 0.035,-0.098 0.058,-0.225 0.095,-0.318 0.423,-1.069 0.976,-1.862 1.657,-2.379 0.681,-0.516 1.527,-0.81 2.536,-0.881 1.128,-0.047 2.12,0.2 2.978,0.74 0.857,0.541 1.586,1.192 2.184,1.956 0.261,0.332 0.408,0.68 0.621,1.019 0.049,-0.143 0.084,-0.322 0.137,-0.455 0.423,-1.069 0.975,-1.862 1.656,-2.379 0.682,-0.516 1.527,-0.81 2.537,-0.881 1.128,-0.047 2.12,0.2 2.978,0.74 0.857,0.541 1.585,1.192 2.184,1.956 0.441,0.562 0.744,1.145 1.052,1.726 0.583,-1.13 1.218,-2.119 1.961,-2.819 1.01,-0.951 2.138,-1.427 3.382,-1.427 0.964,0 1.826,0.323 2.59,0.969 0.335,0.284 0.57,0.642 0.864,0.957 0.058,-0.161 0.098,-0.331 0.176,-0.481 0.305,-0.587 0.739,-1.081 1.303,-1.48 0.564,-0.4 1.234,-0.71 2.009,-0.934 0.775,-0.223 1.62,-0.335 2.537,-0.335 1.503,0 2.842,0.206 4.016,0.618 1.175,0.41 2.203,0.974 3.083,1.69 0.881,0.717 1.633,1.568 2.256,2.555 0.622,0.987 1.133,2.056 1.532,3.207 l -0.211,0.14 C 26.057,2.32 25.739,1.773 25.316,1.057" /></g><g
           transform="translate(148.1899,201.824)"
           id="g72"><path
             id="path74"
             style="fill:#231f20;fill-opacity:1;fill-rule:nonzero;stroke:none"
             d="m 0,0 c -0.151,-1.437 -0.428,-2.936 -0.832,-4.498 -1.159,1.411 -2.091,2.86 -2.796,4.347 -0.706,1.487 -1.059,3.188 -1.059,5.103 0,1.612 0.315,2.759 0.945,3.44 0.63,0.68 1.172,1.02 1.625,1.02 1.563,0 2.344,-1.764 2.344,-5.292 C 0.227,2.81 0.151,1.437 0,0 m 6.615,-13.192 c -0.882,1.21 -1.865,2.381 -2.948,3.515 -1.084,1.134 -2.129,2.281 -3.138,3.44 0.807,2.42 1.424,4.788 1.852,7.106 0.429,2.319 0.694,4.485 0.794,6.502 0.101,1.714 -0.189,3.125 -0.869,4.233 -0.681,1.109 -1.575,1.664 -2.684,1.664 -0.806,0 -1.587,-0.29 -2.343,-0.87 C -3.478,11.819 -4.158,11 -4.763,9.941 -5.367,8.883 -5.846,7.598 -6.199,6.086 -6.552,4.574 -6.728,2.886 -6.728,1.021 c 0,-1.916 0.416,-3.768 1.248,-5.557 0.831,-1.789 1.852,-3.54 3.061,-5.254 -0.907,-2.722 -2.041,-5.506 -3.402,-8.354 -1.361,-2.847 -2.898,-5.632 -4.612,-8.353 l 0.908,-0.606 c 1.562,2.269 3.036,4.751 4.422,7.447 1.386,2.697 2.659,5.481 3.818,8.354 0.958,-1.31 1.928,-2.595 2.91,-3.855 0.983,-1.261 1.878,-2.495 2.685,-3.705 0.806,-1.209 1.461,-2.394 1.965,-3.553 0.504,-1.159 0.756,-2.269 0.756,-3.326 0,-1.159 -0.215,-2.155 -0.643,-2.987 -0.428,-0.832 -0.97,-1.524 -1.625,-2.079 -0.655,-0.554 -1.336,-0.958 -2.041,-1.21 -0.706,-0.252 -1.336,-0.378 -1.89,-0.378 -1.311,0 -2.256,0.278 -2.835,0.833 -0.58,0.554 -0.87,1.259 -0.87,2.117 0,0.301 0.025,0.679 0.076,1.133 0.05,0.454 0.076,0.807 0.076,1.058 0,0.151 -0.038,0.316 -0.114,0.492 -0.075,0.176 -0.239,0.265 -0.491,0.265 -0.152,0 -0.391,-0.202 -0.718,-0.606 -0.328,-0.402 -0.656,-0.918 -0.983,-1.549 -0.327,-0.63 -0.618,-1.323 -0.869,-2.079 -0.252,-0.756 -0.378,-1.512 -0.378,-2.268 0,-0.958 0.415,-1.84 1.247,-2.646 0.831,-0.806 2.028,-1.209 3.591,-1.209 0.907,0 1.991,0.377 3.25,1.133 1.261,0.756 2.47,1.815 3.629,3.176 1.16,1.36 2.155,2.974 2.987,4.838 0.831,1.865 1.247,3.906 1.247,6.123 0,1.613 -0.29,3.112 -0.869,4.499 -0.58,1.386 -1.311,2.684 -2.193,3.893" /></g><g
           transform="translate(221.6348,200.0848)"
           id="g76"><path
             id="path78"
             style="fill:#231f20;fill-opacity:1;fill-rule:nonzero;stroke:none"
             d="m 0,0 c -0.076,0.277 -0.114,0.542 -0.114,0.794 0,0.202 0.101,0.303 0.303,0.303 0,-0.152 0.025,-0.327 0.076,-0.53 C 0.315,0.416 0.353,0.215 0.378,-0.037 0.403,-0.289 0.441,-0.541 0.491,-0.793 0.239,-0.541 0.076,-0.276 0,0 m -15.271,-22.187 c -0.529,-1.513 -1.248,-2.786 -2.155,-3.819 -0.907,-1.033 -1.94,-1.814 -3.099,-2.343 -1.16,-0.529 -2.344,-0.794 -3.554,-0.794 -1.663,0 -3.111,0.378 -4.346,1.134 -1.235,0.756 -2.243,1.764 -3.025,3.024 -0.772,1.247 -1.358,2.631 -1.76,4.149 0.579,1.34 1.049,2.49 1.345,3.335 l -0.454,0.303 c -0.05,-0.051 -0.214,-0.353 -0.491,-0.907 -0.175,-0.35 -0.419,-0.783 -0.694,-1.253 -0.194,1.082 -0.327,2.175 -0.327,3.294 0,2.016 0.278,3.742 0.832,5.178 0.554,1.437 1.285,2.621 2.192,3.553 0.907,0.933 1.94,1.613 3.1,2.042 1.159,0.428 2.318,0.643 3.478,0.643 1.663,0 3.112,-0.329 4.346,-0.984 1.235,-0.655 2.243,-1.537 3.024,-2.645 0.781,-1.11 1.374,-2.408 1.777,-3.894 0.403,-1.486 0.604,-3.061 0.604,-4.725 0,-2.016 -0.264,-3.78 -0.793,-5.291 m -39.5,23.586 c 0,2.722 0.037,5.594 0.113,8.619 0.075,3.024 0.189,5.972 0.34,8.844 0.857,0 1.688,0.026 2.495,0.076 0.806,0.05 1.637,0.076 2.494,0.076 -0.302,-4.183 -0.92,-8.443 -1.852,-12.777 -0.932,-4.334 -2.129,-8.795 -3.59,-13.381 l 0,8.543 z m 1.285,26.686 c 0.201,1.765 0.428,3.289 0.68,4.574 0.252,1.285 0.529,2.306 0.831,3.062 0.303,0.756 0.656,1.134 1.059,1.134 0.151,0 0.34,-0.139 0.567,-0.416 0.227,-0.277 0.428,-0.832 0.604,-1.663 0.177,-0.832 0.341,-2.004 0.492,-3.515 0.151,-1.512 0.227,-3.528 0.227,-6.048 l 0,-2.57 c -0.857,0 -1.701,-0.039 -2.533,-0.114 -0.831,-0.076 -1.65,-0.113 -2.457,-0.113 0.151,2.016 0.328,3.906 0.53,5.669 M 55.225,-0.643 c -0.454,0 -0.945,-0.062 -1.474,-0.188 -0.529,-0.126 -1.033,-0.315 -1.512,-0.567 -0.479,-0.252 -0.882,-0.605 -1.21,-1.058 -0.327,-0.454 -0.491,-0.983 -0.491,-1.588 l 0,-0.604 0,-0.152 c -0.151,-1.159 -0.441,-2.608 -0.87,-4.347 -0.428,-1.739 -0.995,-3.566 -1.701,-5.481 -0.705,-1.915 -1.474,-3.817 -2.305,-5.708 -0.832,-1.89 -1.714,-3.591 -2.646,-5.102 -0.933,-1.512 -1.891,-2.735 -2.873,-3.667 -0.983,-0.933 -1.903,-1.399 -2.759,-1.399 -1.109,0 -1.979,0.391 -2.609,1.172 -0.629,0.781 -0.944,2.154 -0.944,4.12 0,0.605 0.063,1.65 0.189,3.138 0.049,0.589 0.11,1.264 0.164,1.886 0.401,0.904 0.743,1.8 1.007,2.687 l -0.453,0.303 c -0.113,-0.208 -0.231,-0.388 -0.344,-0.591 0.014,0.167 0.026,0.308 0.041,0.477 0.151,1.689 0.29,3.301 0.416,4.838 0.126,1.537 0.189,2.66 0.189,3.365 l 0,2.192 c 0,0.655 -0.063,1.223 -0.189,1.701 -0.126,0.479 -0.34,0.845 -0.643,1.096 -0.302,0.253 -0.781,0.379 -1.436,0.379 -1.411,0 -2.495,-0.19 -3.251,-0.568 -0.756,-0.378 -1.134,-0.642 -1.134,-0.794 0,-0.403 0.152,-0.604 0.454,-0.604 0.05,0 0.126,0.025 0.227,0.075 0.1,0 0.176,0.013 0.226,0.038 0.051,0.026 0.126,0.038 0.227,0.038 0.807,0 1.21,-1.084 1.21,-3.251 0,-0.756 -0.076,-1.902 -0.227,-3.44 -0.151,-1.537 -0.328,-3.175 -0.529,-4.913 -0.202,-1.739 -0.378,-3.402 -0.529,-4.99 -0.113,-1.189 -0.17,-2.067 -0.199,-2.789 -0.336,-0.349 -0.668,-0.716 -1.011,-1.029 -2.319,-2.117 -4.536,-3.175 -6.653,-3.175 -1.159,0 -2.104,0.176 -2.834,0.529 -0.731,0.353 -1.298,0.857 -1.702,1.512 -0.403,0.656 -0.68,1.399 -0.831,2.231 -0.152,0.831 -0.227,1.751 -0.227,2.759 0,0.403 0.075,1.21 0.227,2.419 0.151,1.21 0.315,2.52 0.491,3.931 0.176,1.411 0.34,2.772 0.491,4.082 0.152,1.311 0.227,2.269 0.227,2.873 0,0.504 -0.05,1.134 -0.151,1.89 -0.101,0.756 -0.34,1.5 -0.718,2.23 -0.378,0.731 -0.945,1.361 -1.701,1.89 -0.756,0.529 -1.764,0.794 -3.024,0.794 -1.109,0 -2.218,-0.075 -3.326,-0.226 -1.109,-0.152 -2.319,-0.227 -3.629,-0.227 -0.504,0 -0.92,0.013 -1.248,0.037 C 3.301,-2.394 2.986,-2.306 2.684,-2.154 2.583,0.013 2.293,1.739 1.814,3.024 1.335,4.31 0.542,4.952 -0.567,4.952 -1.323,4.952 -1.903,4.625 -2.306,3.97 -2.709,3.314 -2.911,2.508 -2.911,1.55 c 0,-1.713 0.303,-3.175 0.908,-4.384 0.604,-1.21 1.436,-2.168 2.494,-2.873 -0.151,-1.865 -0.579,-3.44 -1.285,-4.725 -0.706,-1.286 -1.55,-2.319 -2.533,-3.099 -0.983,-0.782 -2.016,-1.349 -3.099,-1.701 -1.084,-0.353 -2.079,-0.53 -2.986,-0.53 l -0.907,0 c 0,0.404 0.025,0.782 0.075,1.134 0.051,0.353 0.076,0.731 0.076,1.134 0,4.233 -0.958,7.434 -2.873,9.601 -1.915,2.167 -4.46,3.25 -7.636,3.25 -1.965,0 -3.981,-0.478 -6.048,-1.435 -2.066,-0.958 -3.943,-2.306 -5.631,-4.045 -1.689,-1.738 -3.062,-3.805 -4.121,-6.199 -1.058,-2.394 -1.587,-5.002 -1.587,-7.824 0,-1.628 0.209,-3.059 0.529,-4.385 -0.398,-0.386 -0.727,-0.814 -1.172,-1.172 -1.033,-0.832 -2.18,-1.525 -3.44,-2.079 -1.26,-0.555 -2.62,-0.832 -4.082,-0.832 -1.361,0 -2.533,0.277 -3.516,0.832 -0.982,0.554 -1.801,1.5 -2.456,2.835 -0.655,1.336 -1.172,3.112 -1.55,5.33 -0.378,2.217 -0.668,4.989 -0.87,8.315 2.37,5.796 4.209,11.227 5.519,16.292 1.31,5.065 2.218,9.739 2.722,14.024 2.419,0.101 4.788,0.189 7.106,0.264 2.318,0.076 4.41,0.139 6.275,0.189 1.865,0.051 3.415,0.089 4.649,0.114 1.235,0.025 1.978,0.063 2.23,0.113 1.311,0.101 2.18,0.441 2.608,1.02 0.429,0.58 0.643,1.223 0.643,1.929 0,0.503 -0.403,0.755 -1.21,0.755 -0.201,0 -0.604,-0.025 -1.209,-0.075 -0.605,-0.051 -1.033,-0.076 -1.285,-0.076 -0.353,-0.05 -1.121,-0.101 -2.306,-0.151 -1.184,-0.051 -2.646,-0.101 -4.385,-0.151 -1.738,-0.05 -3.704,-0.101 -5.897,-0.152 -2.192,-0.05 -4.498,-0.1 -6.917,-0.15 0,0.856 0.025,1.7 0.076,2.532 0.05,0.832 0.075,1.625 0.075,2.382 0,4.233 -0.327,7.358 -0.982,9.374 -0.655,2.016 -1.512,3.024 -2.57,3.024 -0.555,0 -1.223,-0.303 -2.004,-0.908 -0.781,-0.604 -1.373,-1.335 -1.777,-2.192 -0.302,-0.605 -0.869,-2.028 -1.7,-4.271 -0.832,-2.243 -1.651,-5.632 -2.457,-10.168 l -9.451,0 c -3.024,0 -5.493,0.164 -7.408,0.491 -1.915,0.328 -3.428,0.693 -4.536,1.096 -1.109,0.403 -1.877,0.794 -2.306,1.172 -0.428,0.378 -0.668,0.617 -0.718,0.718 l -0.303,-0.68 c 0.706,-1.26 1.588,-2.306 2.646,-3.138 1.059,-0.831 2.218,-1.499 3.478,-2.003 1.26,-0.504 2.608,-0.857 4.044,-1.058 1.437,-0.202 2.886,-0.303 4.347,-0.303 l 3.667,0 c 1.739,0 3.768,0.051 6.086,0.151 -0.403,-2.923 -0.731,-6.287 -0.983,-10.091 -0.252,-3.806 -0.378,-8.078 -0.378,-12.815 0,-4.939 0.202,-9.16 0.605,-12.663 0.403,-3.503 1.058,-6.4 1.965,-8.693 0.908,-2.294 2.092,-3.995 3.554,-5.104 1.461,-1.108 3.275,-1.738 5.442,-1.89 2.42,-0.1 4.549,0.429 6.389,1.588 1.764,1.112 3.257,2.457 4.512,4.009 0.494,-1.094 1.087,-2.096 1.876,-2.913 2.117,-2.192 4.838,-3.288 8.164,-3.288 1.714,0 3.428,0.365 5.141,1.096 1.714,0.73 3.314,1.776 4.801,3.137 1.487,1.361 2.772,2.987 3.855,4.876 1.084,1.89 1.852,3.969 2.306,6.238 l 1.361,0 c 1.361,0 2.696,0.226 4.007,0.679 1.31,0.454 2.507,1.147 3.591,2.079 1.083,0.933 1.99,2.08 2.721,3.44 0.731,1.361 1.222,2.949 1.474,4.763 0.404,-0.101 0.832,-0.176 1.285,-0.227 0.454,-0.05 0.958,-0.075 1.513,-0.075 1.612,0 2.86,0.075 3.742,0.226 0.882,0.152 1.6,0.227 2.154,0.227 0.202,0 0.479,-0.025 0.832,-0.075 0.353,-0.051 0.705,-0.19 1.058,-0.416 0.353,-0.227 0.643,-0.542 0.87,-0.945 0.226,-0.403 0.34,-0.932 0.34,-1.588 0,-0.755 -0.101,-1.789 -0.303,-3.099 -0.201,-1.311 -0.416,-2.709 -0.642,-4.196 -0.227,-1.487 -0.441,-2.974 -0.643,-4.46 -0.201,-1.487 -0.302,-2.785 -0.302,-3.894 0,-0.907 0.076,-1.877 0.227,-2.91 0.151,-1.033 0.453,-1.991 0.907,-2.873 0.453,-0.882 1.096,-1.613 1.928,-2.193 0.831,-0.579 1.927,-0.869 3.288,-0.869 1.613,0 3.276,0.517 4.989,1.55 1.714,1.033 3.327,2.356 4.839,3.969 0.259,0.276 0.483,0.585 0.731,0.87 0.198,-1.595 0.641,-2.876 1.348,-3.818 0.983,-1.311 2.659,-1.966 5.027,-1.966 1.462,0 2.898,0.604 4.309,1.814 1.411,1.21 2.747,2.747 4.007,4.612 1.26,1.865 2.407,3.931 3.44,6.199 1.033,2.268 1.902,4.46 2.608,6.577 l 0,-6.501 c 0,-3.327 0.025,-6.338 0.076,-9.034 0.05,-2.696 0.113,-5.217 0.189,-7.561 0.075,-2.343 0.446,-5.214 0.295,-8.439 -0.151,-3.226 -0.391,-6.313 -0.718,-9.261 -0.327,-2.948 -0.781,-5.707 -1.361,-8.277 -0.58,-2.571 -1.298,-4.801 -2.154,-6.692 -0.857,-1.889 -1.89,-3.376 -3.1,-4.46 -1.209,-1.084 -2.596,-1.625 -4.158,-1.625 -1.814,0 -3.427,0.492 -4.839,1.474 -1.411,0.982 -2.582,2.23 -3.515,3.742 -0.932,1.512 -1.638,3.188 -2.116,5.028 -0.479,1.839 -0.719,3.616 -0.719,5.33 0,1.461 0.278,2.457 0.832,2.986 0.555,0.528 1.109,0.794 1.663,0.794 0.403,0 0.718,-0.064 0.945,-0.19 0.227,-0.126 0.441,-0.189 0.643,-0.189 0.302,0 0.453,0.177 0.453,0.529 0,0.555 -0.251,1.021 -0.756,1.4 -0.504,0.377 -1.184,0.566 -2.041,0.566 -1.865,0 -3.389,-0.73 -4.574,-2.192 -1.184,-1.462 -1.776,-3.68 -1.776,-6.653 0,-2.217 0.365,-4.296 1.096,-6.237 0.731,-1.94 1.701,-3.642 2.911,-5.102 1.209,-1.462 2.608,-2.622 4.195,-3.479 1.588,-0.856 3.238,-1.284 4.952,-1.284 2.47,0 4.864,0.957 7.182,2.872 2.318,1.915 4.385,4.775 6.199,8.581 1.815,3.805 3.263,8.567 4.347,14.288 1.084,5.721 1.179,13.265 1.103,15.357 -0.075,2.091 -0.138,4.485 -0.189,7.181 -0.05,2.696 -0.075,5.96 -0.075,9.79 0,6.301 0.126,11.19 0.378,14.667 0.252,3.478 0.378,5.291 0.378,5.443 0,0.101 -0.025,0.252 -0.076,0.454 -0.05,0.201 -0.227,0.301 -0.529,0.301" /></g><g
           transform="translate(208.0049,144.3133)"
           id="g80"><path
             id="path82"
             style="fill:#231f20;fill-opacity:1;fill-rule:nonzero;stroke:none"
             d="M 0,0 C -0.196,0.135 -0.613,0.428 -1.105,0.812 -0.753,1.334 -0.46,1.896 -0.241,2.504 0.175,1.713 0.502,0.971 0.677,0.55 L 1.278,-0.882 0,0 Z M -3.828,7.028 C -4.276,6.989 -4.688,6.813 -5.052,6.508 -5.491,6.138 -5.735,5.63 -5.756,5.038 -5.819,3.349 -4.047,1.211 -3.151,0.242 -4.263,-0.896 -5.667,-1.83 -7.007,-2.667 c -1.3,3.336 -1.867,6.154 -1.428,8.629 0.414,2.324 2.238,3.79 3.829,3.929 0.055,0.005 0.111,0.007 0.166,0.01 1.525,0.044 2.688,-1.138 3.189,-3.241 0.065,-0.27 0.11,-0.532 0.143,-0.789 -0.828,0.699 -1.784,1.239 -2.72,1.157 m 1.769,-5.442 c -1.111,0.955 -2.233,2.134 -2.255,3.017 -0.008,0.356 0.138,0.661 0.424,0.878 0.172,0.132 0.365,0.207 0.57,0.225 0.74,0.065 1.514,-0.719 2.193,-1.711 C -1.269,3.104 -1.596,2.307 -2.059,1.586 M 13.471,-12.731 27.76,5.874 c 0.161,0.214 0.362,0.479 0.209,0.827 0,0 -0.128,0.212 -0.202,0.265 C 27.694,7.018 27.463,7.062 27.463,7.062 27.15,7.089 26.938,6.946 26.691,6.864 23.792,5.897 21.913,4.249 21.913,4.249 L 25.19,4.978 11.374,-10.003 1.222,3.206 C 1.107,3.382 0.716,3.951 0.159,4.598 0.191,5.328 0.13,6.102 -0.069,6.941 c -0.638,2.674 -2.284,4.234 -4.407,4.173 -2.408,-0.068 -4.673,-2.239 -5.153,-4.94 -0.496,-2.77 0.138,-5.858 1.575,-9.491 -0.227,-0.142 -0.449,-0.281 -0.66,-0.416 -3.53,-2.28 -5.537,-10.205 -5.621,-10.542 -0.082,-0.325 0.116,-0.656 0.441,-0.739 0.327,-0.08 0.655,0.118 0.736,0.444 0.02,0.077 1.976,7.794 5.101,9.813 0.152,0.098 0.309,0.196 0.471,0.299 0.845,-1.981 1.905,-4.12 3.134,-6.45 3.194,-6.06 -5.934,-8.173 -7.266,-9.196 -0.266,-0.203 -0.318,-0.585 -0.113,-0.851 0.131,-0.171 0.335,-0.254 0.536,-0.236 0.112,0.009 0.222,0.05 0.316,0.123 1.896,1.453 11.043,4.201 7.603,10.728 -1.252,2.375 -2.326,4.54 -3.166,6.528 1.41,0.878 2.969,1.896 4.234,3.175 L 8.85,-12.738 -3.313,-25.927 c -0.896,-0.969 -2.667,-3.105 -2.604,-4.796 0.02,-0.59 0.264,-1.098 0.704,-1.468 0.362,-0.306 0.775,-0.482 1.223,-0.521 0.937,-0.082 1.892,0.457 2.72,1.157 0.557,0.647 2.216,2.489 2.33,2.665 l 10.308,13.42 15.574,-16.891 c 0.18,-0.188 0.368,-0.384 0.681,-0.357 l 0.356,0.031 0.149,0.33 c 0.154,0.348 -0.047,0.613 -0.209,0.827 l -14.448,18.799 z" /></g></g></g></g></svg>